<svg xmlns="http://www.w3.org/2000/svg" version="1.1" xmlns:xlink="http://www.w3.org/1999/xlink" xmlns:svgjs="http://svgjs.dev/svgjs" width="1000" height="999" viewBox="0 0 1000 999"><g transform="matrix(1,0,0,1,-0.215743440233382,-0.21552769679306039)"><svg viewBox="0 0 343 343" data-background-color="#ffffff" preserveAspectRatio="xMidYMid meet" height="999" width="1000" xmlns="http://www.w3.org/2000/svg" xmlns:xlink="http://www.w3.org/1999/xlink"><g id="tight-bounds" transform="matrix(1,0,0,1,0.0740000000000407,0.07400000000001228)"><svg viewBox="0 0 342.85155851775386 342.85155851775386" height="342.85155851775386" width="342.85155851775386"><g><svg></svg></g><g><svg viewBox="0 0 342.85155851775386 342.85155851775386" height="342.85155851775386" width="342.85155851775386"><g><path d="M0 171.426c0-94.676 76.75-171.426 171.426-171.426 94.676 0 171.426 76.75 171.426 171.426 0 94.676-76.75 171.426-171.426 171.426-94.676 0-171.426-76.75-171.426-171.426zM171.426 334.707c90.178 0 163.281-73.104 163.281-163.281 0-90.178-73.104-163.281-163.281-163.281-90.178 0-163.281 73.104-163.281 163.281 0 90.178 73.104 163.281 163.281 163.281z" data-fill-palette-color="tertiary" fill="#202046" stroke="transparent"></path><ellipse rx="164.56874808852186" ry="164.56874808852186" cx="171.42577925887693" cy="171.42577925887693" fill="#202046" stroke="transparent" stroke-width="0" fill-opacity="1" data-fill-palette-color="tertiary"></ellipse></g><g transform="matrix(1,0,0,1,64.84655864529837,126.26935048977677)"><svg viewBox="0 0 213.1584412271571 90.31285753820033" height="90.31285753820033" width="213.1584412271571"><g><svg viewBox="0 0 213.1584412271571 90.31285753820033" height="90.31285753820033" width="213.1584412271571"><g><svg viewBox="0 0 213.1584412271571 90.31285753820033" height="90.31285753820033" width="213.1584412271571"><g><svg viewBox="0 0 213.1584412271571 90.31285753820033" height="90.31285753820033" width="213.1584412271571"><g><svg viewBox="0 0 213.1584412271571 90.31285753820033" height="90.31285753820033" width="213.1584412271571"><g><svg viewBox="0 0 213.1584412271571 90.31285753820033" height="90.31285753820033" width="213.1584412271571"><g transform="matrix(1,0,0,1,0,0)"><svg width="213.1584412271571" viewBox="1.4500000476837158 -35.45000076293945 84.85000610351562 35.95000076293945" height="90.31285753820033" data-palette-color="#ffffff"><path d="M3.8-12.2L3.8-12.2Q4.75-11.45 7.08-10.15 9.4-8.85 11.53-8.85 13.65-8.85 13.65-10.5L13.65-10.5Q13.65-11.25 13.05-11.83 12.45-12.4 10.85-13.15 9.25-13.9 8.45-14.33 7.65-14.75 6.33-15.73 5-16.7 4.3-17.75L4.3-17.75Q2.3-20.6 2.3-25 2.3-29.4 5.58-32.43 8.85-35.45 14.15-35.45L14.15-35.45Q17.75-35.45 20.8-34.68 23.85-33.9 23.95-32.65L23.95-32.65Q23.95-32.5 23.95-32.35L23.95-32.35Q23.95-30.6 22.85-27.93 21.75-25.25 21.3-24.95L21.3-24.95Q18.1-26.6 15.58-26.6 13.05-26.6 13.05-24.8L13.05-24.8Q13.05-23.7 14.9-22.85L14.9-22.85Q15.3-22.65 16.05-22.3 16.8-21.95 17.78-21.48 18.75-21 19.88-20.28 21-19.55 22.3-18.35L22.3-18.35Q24.95-15.85 24.95-11.75L24.95-11.75Q24.95-6.4 22-3 19.05 0.4 12.9 0.5L12.9 0.5Q9.9 0.5 7.48 0 5.05-0.5 3.25-1.95 1.45-3.4 1.45-5.45 1.45-7.5 2.2-9.53 2.95-11.55 3.8-12.2ZM35.85-1.05L27.1-34.35Q27.1-34.6 29.27-34.83 31.45-35.05 32.85-35.05L32.85-35.05Q38.4-35.05 38.65-33.6L38.65-33.6 42.95-11.6 47-33.6Q47.3-35.05 53.2-35.05L53.2-35.05Q54.65-35.05 56.85-34.85 59.05-34.65 59.05-34.4L59.05-34.4 50.2-1.3Q50-0.5 47.25-0.25L47.25-0.25Q43 0.2 39.52-0.08 36.05-0.35 35.85-1.05L35.85-1.05ZM76.4-35.45Q80.05-35.45 82.82-34.43 85.59-33.4 85.59-31.65 85.59-29.9 84.27-27.33 82.95-24.75 82.05-24.75L82.05-24.75Q81.8-24.75 81.47-25.03 81.15-25.3 79.97-25.63 78.8-25.95 77.95-25.95L77.95-25.95Q75.05-25.95 73.27-23.9 71.5-21.85 71.5-17.63 71.5-13.4 73.32-11.35 75.15-9.3 77.95-9.3L77.95-9.3Q79.09-9.3 80.52-9.63 81.95-9.95 82.55-10.55L82.55-10.55Q82.65-10.65 82.95-10.65 83.25-10.65 84.07-9.53 84.9-8.4 85.59-6.58 86.3-4.75 86.3-3.75L86.3-3.75Q86.3-1.8 83.3-0.65 80.3 0.5 76.2 0.5L76.2 0.5Q69.59 0.5 65.34-4.15 61.1-8.8 61.1-17.28 61.1-25.75 65.47-30.6 69.84-35.45 76.4-35.45L76.4-35.45Z" opacity="1" transform="matrix(1,0,0,1,0,0)" fill="#ffffff" class="undefined-text-0" data-fill-palette-color="quaternary" id="text-0"></path></svg></g></svg></g></svg></g></svg></g><g></g></svg></g></svg></g></svg></g></svg></g><defs></defs></svg><rect width="342.85155851775386" height="342.85155851775386" fill="none" stroke="none" visibility="hidden"></rect></g></svg></g></svg>